<svg id="Layer_1" data-name="Layer 1" xmlns="http://www.w3.org/2000/svg" viewBox="0 0 197.88 197.88">
  <title>atomist-logo-horiz-reversed</title>
  <path fill="rgba(255, 255, 255, 0.70)" d="M92.93,146l3.67-22-23.42-41a15.34,15.34,0,0,1,2.33-17.31L85.66,54.5,75.1,47.66a15.29,15.29,0,0,0-5-2.1l-17.77,52a16.65,16.65,0,0,0-.82,6.87l17.57,69.25a16.69,16.69,0,0,0,.27,1.8l19.81-21.78A15.34,15.34,0,0,0,92.93,146Z"/>
  <path fill="rgba(255, 255, 255, 0.75)" d="M92.93,146a15.34,15.34,0,0,1-3.78,7.8L69.34,175.53c1.4,6.94,7,12,13.7,12h29.19a14.08,14.08,0,0,0,12.94-9.39l.76-2.94L96.6,123.91Z"/>
  <path fill="rgba(255, 255, 255, 0.75)" d="M85.66,54.5,107.5,30.55a15.2,15.2,0,0,1,7-4.37l-6-16.52c-2.13-5.83-7.3-9.66-13-9.66h0C89.53,0,84.28,4,82.23,10L70.09,45.56a15.29,15.29,0,0,1,5,2.1Z"/>
  <path fill="rgba(255, 255, 255, 0.40)" d="M185.77,141.29,132.57,34.07a15.34,15.34,0,0,0-18.11-7.89L142,101.62a16.65,16.65,0,0,1-.1,11.63l-16,62,8.17,14.29a15.34,15.34,0,0,0,13.66,8.36h24.3a15.34,15.34,0,0,0,15.08-12.52l0-34.44A15.34,15.34,0,0,0,185.77,141.29Z"/>
  <path fill="rgba(255, 255, 255, 1.00)" d="M51.5,104.48a16.65,16.65,0,0,1,.82-6.87l17.77-52a15.34,15.34,0,0,0-17.47,9l-51.4,122a15.34,15.34,0,0,0,14.13,21.29H42.23a15.34,15.34,0,0,0,11.35-5l15.76-17.33a16.69,16.69,0,0,1-.27-1.8Z"/>
  <path fill="rgba(255, 255, 255, 0.60)" class="logo-5" d="M142,101.62,114.47,26.18a15.2,15.2,0,0,0-7,4.37L85.66,54.5l11.89,7.71a15.34,15.34,0,0,1,6.78,15.39L96.6,123.91l29.33,51.32,16-62A16.65,16.65,0,0,0,142,101.62Z"/>
  <path fill="rgba(255, 255, 255, 0.50)" d="M73.18,82.94l23.42,41,7.72-46.31a15.34,15.34,0,0,0-6.78-15.39L85.66,54.5,75.51,65.62A15.34,15.34,0,0,0,73.18,82.94Z"/>
</svg>
